# Alias OBJ Model File
# Exported from SketchUp, (c) 2000-2012 Trimble Navigation Limited
# File units = inches

mtllib patRoom.mtl

g Mesh1 Model

usemtl FrontColor
v 3.62031 -1.42109e-14 -2.7354
vt -3.62031 2.7354
vn 0 -1 -0
v 3.62031 -1.42109e-14 2.1396
vt -3.62031 -2.1396
v 0.802384 -1.42109e-14 2.1396
vt -0.802384 -2.1396
v -4.81719 -1.42109e-14 2.1396
vt 4.81719 -2.1396
v -4.81719 -1.42109e-14 -2.1729
vt 4.81719 2.1729
v 0.995307 -1.42109e-14 -2.1729
vt -0.995307 2.1729
v 0.995307 -1.42109e-14 -2.7354
vt -0.995307 2.7354
f 1/1/1 2/2/1 3/3/1 4/4/1 5/5/1 6/6/1 7/7/1 

vt -2.1396 -1.42109e-14
vn 1 0 -0
vt 2.7354 -1.42109e-14
v 3.62031 2.4375 -2.7354
vt 2.7354 2.4375
v 3.62031 2.4375 2.1396
vt -2.1396 2.4375
f 2/8/2 1/9/2 8/10/2 9/11/2 

vt -3.62031 -1.42109e-14
vn 0 0 -1
vt -0.995307 -1.42109e-14
v 0.995307 2.4375 -2.7354
vt -0.995307 2.4375
vt -3.62031 2.4375
f 1/12/3 7/13/3 10/14/3 8/15/3 

vt -2.7354 -1.42109e-14
vn -1 0 -0
vt -2.1729 -1.42109e-14
v 0.995307 2.4375 -2.1729
vt -2.1729 2.4375
vt -2.7354 2.4375
f 7/16/4 6/17/4 11/18/4 10/19/4 

vt 4.81719 -1.42109e-14
v -4.81719 2.4375 -2.1729
vt 4.81719 2.4375
f 6/13/3 5/20/3 12/21/3 11/14/3 

vt 2.1396 -1.42109e-14
v -4.81719 2.4375 2.1396
vt 2.1396 2.4375
f 5/17/4 4/22/4 13/23/4 12/18/4 

vt -4.81719 -1.42109e-14
vn 0 0 1
vt 0.802384 -1.42109e-14
v 0.802384 2.4375 2.1396
vt 0.802384 2.4375
vt -4.81719 2.4375
f 4/24/5 3/25/5 14/26/5 13/27/5 

vt 3.62031 -1.42109e-14
vt 3.62031 2.4375
f 3/25/5 2/28/5 9/29/5 14/26/5 

vt 3.62031 -2.1396
vn 0 1 -0
vt 3.62031 2.7354
vt 0.995307 2.7354
vt 0.995307 2.1729
vt -4.81719 2.1729
vt -4.81719 -2.1396
vt 0.802384 -2.1396
f 9/30/6 8/31/6 10/32/6 11/33/6 12/34/6 13/35/6 14/36/6 

