# Alias OBJ Model File
# Exported from SketchUp, (c) 2000-2012 Trimble Navigation Limited
# File units = inches

mtllib 02.600.mtl

g Mesh1 Model

usemtl FrontColor
v -151.014 0 98.1854
vt 151.014 -98.1854
vn 0 -1 -0
v -151.639 0 -114.752
vt 151.639 114.752
v -96.452 0 -114.752
vt 96.452 114.752
v -96.452 0 -134.44
vt 96.452 134.44
v 140.736 0 -134.44
vt -140.736 134.44
v 140.736 0 43.4354
vt -140.736 -43.4354
v 84.923 0 43.4354
vt -84.923 -43.4354
v 84.923 0 98.1854
vt -84.923 -98.1854
f 1/1/1 2/2/1 3/3/1 4/4/1 5/5/1 6/6/1 7/7/1 8/8/1 

vt -115.197 0
vn -0.999996 0 0.00293512
vt 97.7417 0
v -151.014 84.6875 98.1854
vt 97.7417 84.6875
v -151.639 84.6875 -114.752
vt -115.197 84.6875
f 2/9/2 1/10/2 9/11/2 10/12/2 

vt -151.014 0
vn 0 0 1
vt 84.923 0
v 84.923 84.6875 98.1854
vt 84.923 84.6875
vt -151.014 84.6875
f 1/13/3 8/14/3 11/15/3 9/16/3 

vt -98.1854 0
vn 1 0 -0
vt -43.4354 0
v 84.923 84.6875 43.4354
vt -43.4354 84.6875
vt -98.1854 84.6875
f 8/17/4 7/18/4 12/19/4 11/20/4 

vt 140.736 0
v 140.736 84.6875 43.4354
vt 140.736 84.6875
f 7/14/3 6/21/3 13/22/3 12/15/3 

vt 134.44 0
v 140.736 84.6875 -134.44
vt 134.44 84.6875
f 6/18/4 5/23/4 14/24/4 13/19/4 

vt -140.736 0
vn 0 0 -1
vt 96.452 0
v -96.452 84.6875 -134.44
vt 96.452 84.6875
vt -140.736 84.6875
f 5/25/5 4/26/5 15/27/5 14/28/5 

vt -134.44 0
vn -1 0 -0
vt -114.752 0
v -96.452 84.6875 -114.752
vt -114.752 84.6875
vt -134.44 84.6875
f 4/29/6 3/30/6 16/31/6 15/32/6 

vt 151.639 0
vt 151.639 84.6875
f 3/26/5 2/33/5 10/34/5 16/27/5 

vt -151.639 114.752
vn 0 1 -0
vt -151.014 -98.1854
vt 84.923 -98.1854
vt 84.923 -43.4354
vt 140.736 -43.4354
vt 140.736 134.44
vt -96.452 134.44
vt -96.452 114.752
f 10/35/7 9/36/7 11/37/7 12/38/7 13/39/7 14/40/7 15/41/7 16/42/7 

