# Alias OBJ Model File
# Exported from SketchUp, (c) 2000-2012 Trimble Navigation Limited
# File units = inches

mtllib 02.854.mtl

g Mesh1 Model

usemtl FrontColor
v -31.4173 -4.26326e-14 22.8964
vt 31.4173 -22.8964
vn 0 -1 -0
v -31.6673 -4.26326e-14 -9.66613
vt 31.6673 9.66613
v 31.2702 -4.26326e-14 -9.66613
vt -31.2702 9.66613
v 31.2702 -4.26326e-14 22.8964
vt -31.2702 -22.8964
v 18.7702 -4.26326e-14 22.8964
vt -18.7702 -22.8964
v 18.7702 -4.26326e-14 5.89637
vt -18.7702 -5.89637
v -18.2923 -4.26326e-14 5.89637
vt 18.2923 -5.89637
v -18.2923 -4.26326e-14 22.8964
vt 18.2923 -22.8964
f 1/1/1 2/2/1 3/3/1 4/4/1 5/5/1 6/6/1 7/7/1 8/8/1 

vt -9.90897 -4.26326e-14
vn -0.999971 0 0.00767732
vt 22.6545 -4.26326e-14
v -31.4173 10.125 22.8964
vt 22.6545 10.125
v -31.6673 10.125 -9.66613
vt -9.90897 10.125
f 2/9/2 1/10/2 9/11/2 10/12/2 

vt -31.4173 -4.26326e-14
vn 0 0 1
vt -18.2923 -4.26326e-14
v -18.2923 10.125 22.8964
vt -18.2923 10.125
vt -31.4173 10.125
f 1/13/3 8/14/3 11/15/3 9/16/3 

vt -22.8964 -4.26326e-14
vn 1 0 -0
vt -5.89637 -4.26326e-14
v -18.2923 10.125 5.89637
vt -5.89637 10.125
vt -22.8964 10.125
f 8/17/4 7/18/4 12/19/4 11/20/4 

vt 18.7702 -4.26326e-14
v 18.7702 10.125 5.89637
vt 18.7702 10.125
f 7/14/3 6/21/3 13/22/3 12/15/3 

vt 5.89637 -4.26326e-14
vn -1 0 -0
vt 22.8964 -4.26326e-14
v 18.7702 10.125 22.8964
vt 22.8964 10.125
vt 5.89637 10.125
f 6/23/5 5/24/5 14/25/5 13/26/5 

vt 31.2702 -4.26326e-14
v 31.2702 10.125 22.8964
vt 31.2702 10.125
f 5/21/3 4/27/3 15/28/3 14/22/3 

vt 9.66613 -4.26326e-14
v 31.2702 10.125 -9.66613
vt 9.66613 10.125
f 4/17/4 3/29/4 16/30/4 15/20/4 

vt -31.2702 -4.26326e-14
vn 0 0 -1
vt 31.6673 -4.26326e-14
vt 31.6673 10.125
vt -31.2702 10.125
f 3/31/6 2/32/6 10/33/6 16/34/6 

vt -31.6673 9.66613
vn 0 1 -0
vt -31.4173 -22.8964
vt -18.2923 -22.8964
vt -18.2923 -5.89637
vt 18.7702 -5.89637
vt 18.7702 -22.8964
vt 31.2702 -22.8964
vt 31.2702 9.66613
f 10/35/7 9/36/7 11/37/7 12/38/7 13/39/7 14/40/7 15/41/7 16/42/7 

