# Alias OBJ Model File
# Exported from SketchUp, (c) 2000-2012 Trimble Navigation Limited
# File units = inches

mtllib 02.820.mtl

g Mesh1 Model

usemtl FrontColor
v -4.13346 -3.55271e-15 0.414175
vt 4.13346 -0.414175
vn 0 -1 -0
v -4.13346 -3.55271e-15 -0.148325
vt 4.13346 0.148325
v -1.00846 -3.55271e-15 -0.148325
vt 1.00846 0.148325
v -1.00846 -3.55271e-15 -0.585825
vt 1.00846 0.585825
v 1.11654 -3.55271e-15 -0.585825
vt -1.11654 0.585825
v 1.11654 -3.55271e-15 -0.148325
vt -1.11654 0.148325
v 4.30404 -3.55271e-15 -0.148325
vt -4.30404 0.148325
v 4.30404 -3.55271e-15 0.414175
vt -4.30404 -0.414175
f 1/1/1 2/2/1 3/3/1 4/4/1 5/5/1 6/6/1 7/7/1 8/8/1 

vt -0.148325 -3.55271e-15
vn -1 0 -0
vt 0.414175 -3.55271e-15
v -4.13346 0.75 0.414175
vt 0.414175 0.75
v -4.13346 0.75 -0.148325
vt -0.148325 0.75
f 2/9/2 1/10/2 9/11/2 10/12/2 

vt -4.13346 -3.55271e-15
vn 0 0 1
vt 4.30404 -3.55271e-15
v 4.30404 0.75 0.414175
vt 4.30404 0.75
vt -4.13346 0.75
f 1/13/3 8/14/3 11/15/3 9/16/3 

vt -0.414175 -3.55271e-15
vn 1 0 -0
vt 0.148325 -3.55271e-15
v 4.30404 0.75 -0.148325
vt 0.148325 0.75
vt -0.414175 0.75
f 8/17/4 7/18/4 12/19/4 11/20/4 

vt -4.30404 -3.55271e-15
vn 0 0 -1
vt -1.11654 -3.55271e-15
v 1.11654 0.75 -0.148325
vt -1.11654 0.75
vt -4.30404 0.75
f 7/21/5 6/22/5 13/23/5 12/24/5 

vt 0.585825 -3.55271e-15
v 1.11654 0.75 -0.585825
vt 0.585825 0.75
f 6/18/4 5/25/4 14/26/4 13/19/4 

vt 1.00846 -3.55271e-15
v -1.00846 0.75 -0.585825
vt 1.00846 0.75
f 5/22/5 4/27/5 15/28/5 14/23/5 

vt -0.585825 -3.55271e-15
v -1.00846 0.75 -0.148325
vt -0.585825 0.75
f 4/29/2 3/9/2 16/12/2 15/30/2 

vt 4.13346 -3.55271e-15
vt 4.13346 0.75
f 3/27/5 2/31/5 10/32/5 16/28/5 

vt -4.13346 0.148325
vn 0 1 -0
vt -4.13346 -0.414175
vt 4.30404 -0.414175
vt 4.30404 0.148325
vt 1.11654 0.148325
vt 1.11654 0.585825
vt -1.00846 0.585825
vt -1.00846 0.148325
f 10/33/6 9/34/6 11/35/6 12/36/6 13/37/6 14/38/6 15/39/6 16/40/6 

