# Alias OBJ Model File
# Exported from SketchUp, (c) 2000-2012 Trimble Navigation Limited
# File units = inches

mtllib 02.824.mtl

g Mesh1 Model

usemtl FrontColor
v -0.113779 0 1.19029
vt 0.113779 -1.19029
vn 0 -1 -0
v -0.113779 0 -1.28105
vt 0.113779 1.28105
v 0.119007 0 -1.28105
vt -0.119007 1.28105
v 0.119007 0 1.28145
vt -0.119007 -1.28145
f 1/1/1 2/2/1 3/3/1 4/4/1 

vt -1.28105 0
vn -1 0 -0
vt 1.19029 0
v -0.113779 0.3125 1.19029
vt 1.19029 0.3125
v -0.113779 0.3125 -1.28105
vt -1.28105 0.3125
f 2/5/2 1/6/2 5/7/2 6/8/2 

vt 0.328099 0
vn -0.364653 0 0.931143
vt 0.578099 0
v 0.119007 0.3125 1.28145
vt 0.578099 0.3125
vt 0.328099 0.3125
f 1/9/3 4/10/3 7/11/3 5/12/3 

vt -1.28145 0
vn 1 0 -0
vt 1.28105 0
v 0.119007 0.3125 -1.28105
vt 1.28105 0.3125
vt -1.28145 0.3125
f 4/13/4 3/14/4 8/15/4 7/16/4 

vt -0.119007 0
vn 0 0 -1
vt 0.113779 0
vt 0.113779 0.3125
vt -0.119007 0.3125
f 3/17/5 2/18/5 6/19/5 8/20/5 

vt -0.113779 1.28105
vn 0 1 -0
vt -0.113779 -1.19029
vt 0.119007 -1.28145
vt 0.119007 1.28105
f 6/21/6 5/22/6 7/23/6 8/24/6 

