# Alias OBJ Model File
# Exported from SketchUp, (c) 2000-2012 Trimble Navigation Limited
# File units = inches

mtllib 98.802.mtl

g Mesh1 Model

usemtl FrontColor
v -37.5298 0 15.6689
vt 37.5298 -15.6689
vn 0 -1 -0
v -37.5298 0 -14.0811
vt 37.5298 14.0811
v 33.2202 0 -14.0811
vt -33.2202 14.0811
v 33.2202 0 33.4814
vt -33.2202 -33.4814
v 14.5952 0 33.4814
vt -14.5952 -33.4814
v 14.5952 0 15.6689
vt -14.5952 -15.6689
f 1/1/1 2/2/1 3/3/1 4/4/1 5/5/1 6/6/1 

vt -14.0811 0
vn -1 0 -0
vt 15.6689 0
v -37.5298 21.125 15.6689
vt 15.6689 21.125
v -37.5298 21.125 -14.0811
vt -14.0811 21.125
f 2/7/2 1/8/2 7/9/2 8/10/2 

vt -37.5298 0
vn 0 0 1
vt 14.5952 0
v 14.5952 21.125 15.6689
vt 14.5952 21.125
vt -37.5298 21.125
f 1/11/3 6/12/3 9/13/3 7/14/3 

vt 33.4814 0
v 14.5952 21.125 33.4814
vt 33.4814 21.125
f 6/8/2 5/15/2 10/16/2 9/9/2 

vt 33.2202 0
v 33.2202 21.125 33.4814
vt 33.2202 21.125
f 5/12/3 4/17/3 11/18/3 10/13/3 

vt -33.4814 0
vn 1 0 -0
vt 14.0811 0
v 33.2202 21.125 -14.0811
vt 14.0811 21.125
vt -33.4814 21.125
f 4/19/4 3/20/4 12/21/4 11/22/4 

vt -33.2202 0
vn 0 0 -1
vt 37.5298 0
vt 37.5298 21.125
vt -33.2202 21.125
f 3/23/5 2/24/5 8/25/5 12/26/5 

vt -37.5298 14.0811
vn 0 1 -0
vt -37.5298 -15.6689
vt 14.5952 -15.6689
vt 14.5952 -33.4814
vt 33.2202 -33.4814
vt 33.2202 14.0811
f 8/27/6 7/28/6 9/29/6 10/30/6 11/31/6 12/32/6 

