# Alias OBJ Model File
# Exported from SketchUp, (c) 2000-2012 Trimble Navigation Limited
# File units = inches

mtllib 98.110.mtl

g Mesh1 Model

usemtl FrontColor
v -1.40603 0 -1.37038
vt 1.40603 1.37038
vn 0 -1 -0
v -0.468534 0 -1.37038
vt 0.468534 1.37038
v -0.468534 0 -0.807881
vt 0.468534 0.807881
v -0.781034 0 -0.807881
vt 0.781034 0.807881
v -0.781034 0 -0.182881
vt 0.781034 0.182881
v 0.718966 0 -0.182881
vt -0.718966 0.182881
v 0.718966 0 0.192119
vt -0.718966 -0.192119
v 1.15647 0 0.192119
vt -1.15647 -0.192119
v 1.15647 0 0.817119
vt -1.15647 -0.817119
v -0.718534 0 0.817119
vt 0.718534 -0.817119
v -0.718534 0 0.567119
vt 0.718534 -0.567119
v -1.40603 0 0.567119
vt 1.40603 -0.567119
f 1/1/1 2/2/1 3/3/1 4/4/1 5/5/1 6/6/1 7/7/1 8/8/1 9/9/1 10/10/1 11/11/1 12/12/1 

vt 0.468534 0
vn 0 0 -1
vt 1.40603 0
v -1.40603 0.5625 -1.37038
vt 1.40603 0.5625
v -0.468534 0.5625 -1.37038
vt 0.468534 0.5625
f 2/13/2 1/14/2 13/15/2 14/16/2 

vt -1.37038 0
vn -1 0 -0
vt 0.567119 0
v -1.40603 0.5625 0.567119
vt 0.567119 0.5625
vt -1.37038 0.5625
f 1/17/3 12/18/3 15/19/3 13/20/3 

vt -1.40603 0
vn 0 0 1
vt -0.718534 0
v -0.718534 0.5625 0.567119
vt -0.718534 0.5625
vt -1.40603 0.5625
f 12/21/4 11/22/4 16/23/4 15/24/4 

vt 0.817119 0
v -0.718534 0.5625 0.817119
vt 0.817119 0.5625
f 11/18/3 10/25/3 17/26/3 16/19/3 

vt 1.15647 0
v 1.15647 0.5625 0.817119
vt 1.15647 0.5625
f 10/22/4 9/27/4 18/28/4 17/23/4 

vt -0.817119 0
vn 1 0 -0
vt -0.192119 0
v 1.15647 0.5625 0.192119
vt -0.192119 0.5625
vt -0.817119 0.5625
f 9/29/5 8/30/5 19/31/5 18/32/5 

vt -1.15647 0
vt -0.718966 0
v 0.718966 0.5625 0.192119
vt -0.718966 0.5625
vt -1.15647 0.5625
f 8/33/2 7/34/2 20/35/2 19/36/2 

vt 0.182881 0
v 0.718966 0.5625 -0.182881
vt 0.182881 0.5625
f 7/30/5 6/37/5 21/38/5 20/31/5 

vt 0.781034 0
v -0.781034 0.5625 -0.182881
vt 0.781034 0.5625
f 6/34/2 5/39/2 22/40/2 21/35/2 

vt 0.807881 0
v -0.781034 0.5625 -0.807881
vt 0.807881 0.5625
f 5/37/5 4/41/5 23/42/5 22/38/5 

vt -0.781034 0
vt -0.468534 0
v -0.468534 0.5625 -0.807881
vt -0.468534 0.5625
vt -0.781034 0.5625
f 4/43/4 3/44/4 24/45/4 23/46/4 

vt 1.37038 0
vt 1.37038 0.5625
f 3/41/5 2/47/5 14/48/5 24/42/5 

vt -0.468534 1.37038
vn 0 1 -0
vt -1.40603 1.37038
vt -1.40603 -0.567119
vt -0.718534 -0.567119
vt -0.718534 -0.817119
vt 1.15647 -0.817119
vt 1.15647 -0.192119
vt 0.718966 -0.192119
vt 0.718966 0.182881
vt -0.781034 0.182881
vt -0.781034 0.807881
vt -0.468534 0.807881
f 14/49/6 13/50/6 15/51/6 16/52/6 17/53/6 18/54/6 19/55/6 20/56/6 21/57/6 22/58/6 23/59/6 24/60/6 

