# Alias OBJ Model File
# Exported from SketchUp, (c) 2000-2012 Trimble Navigation Limited
# File units = inches

mtllib 98.715.mtl

g Mesh1 Model

usemtl FrontColor
v 20.7376 0 -10.9236
vt -20.7376 10.9236
vn 0 -1 -0
v 18.7618 0 -3.50992
vt -18.7618 3.50992
v 18.7376 0 -10.9236
vt -18.7376 10.9236
f 1/1/1 2/2/1 3/3/1

v 19.4422 0 -4.44686
vt -19.4422 4.44686
f 2/2/1 1/1/1 4/4/1

v 19.9422 0 -4.44686
vt -19.9422 4.44686
f 4/4/1 1/1/1 5/5/1

v 19.9422 0 -3.88436
vt -19.9422 3.88436
f 5/5/1 1/1/1 6/6/1

v 20.1961 0 -3.50992
vt -20.1961 3.50992
f 6/6/1 1/1/1 7/7/1

v 20.1961 0 -2.88492
vt -20.1961 2.88492
f 7/7/1 1/1/1 8/8/1

v 20.7376 0 -1.04222
vt -20.7376 1.04222
f 9/9/1 8/8/1 1/1/1

v 18.8626 0 -1.04222
vt -18.8626 1.04222
f 10/10/1 8/8/1 9/9/1

v 18.8001 0 -1.86112
vt -18.8001 1.86112
f 11/11/1 8/8/1 10/10/1

v 18.7618 0 -2.87148
vt -18.7618 2.87148
f 11/11/1 12/12/1 8/8/1

v 16.3001 0 -1.86112
vt -16.3001 1.86112
f 13/13/1 12/12/1 11/11/1

f 12/12/1 13/13/1 3/3/1

v 18.7376 0 -11.9236
vt -18.7376 11.9236
f 3/3/1 13/13/1 14/14/1

v 16.3001 0 -10.2986
vt -16.3001 10.2986
f 15/15/1 14/14/1 13/13/1

v 15.7376 0 -10.2986
vt -15.7376 10.2986
f 16/16/1 14/14/1 15/15/1

v 19.4876 0 -12.3611
vt -19.4876 12.3611
f 16/16/1 17/17/1 14/14/1

v 15.7376 0 -10.5486
vt -15.7376 10.5486
f 18/18/1 17/17/1 16/16/1

v 15.2376 0 -10.5486
vt -15.2376 10.5486
f 19/19/1 17/17/1 18/18/1

v 15.2376 0 -12.3611
vt -15.2376 12.3611
f 17/17/1 19/19/1 20/20/1

vt -12.3611 0
vn -1 0 -0
vt -10.5486 0
v 15.2376 1.25 -10.5486
vt -10.5486 1.25
v 15.2376 1.25 -12.3611
vt -12.3611 1.25
f 20/21/2 19/22/2 21/23/2 22/24/2 

vt 15.2376 0
vn 0 0 1
vt 15.7376 0
v 15.7376 1.25 -10.5486
vt 15.7376 1.25
vt 15.2376 1.25
f 19/25/3 18/26/3 23/27/3 21/28/3 

vt -10.2986 0
v 15.7376 1.25 -10.2986
vt -10.2986 1.25
f 18/22/2 16/29/2 24/30/2 23/23/2 

vt 16.3001 0
v 16.3001 1.25 -10.2986
vt 16.3001 1.25
f 16/26/3 15/31/3 25/32/3 24/27/3 

vt -1.86112 0
v 16.3001 1.25 -1.86112
vt -1.86112 1.25
f 15/29/2 13/33/2 26/34/2 25/30/2 

vt 18.8001 0
v 18.8001 1.25 -1.86112
vt 18.8001 1.25
f 13/31/3 11/35/3 27/36/3 26/32/3 

vt -0.425032 0
vn -0.9971 0 0.0761001
vt 0.396254 0
v 18.8626 1.25 -1.04222
vt 0.396254 1.25
vt -0.425032 1.25
f 11/37/4 10/38/4 28/39/4 27/40/4 

vt 18.8626 0
vt 20.7376 0
v 20.7376 1.25 -1.04222
vt 20.7376 1.25
vt 18.8626 1.25
f 10/41/3 9/42/3 29/43/3 28/44/3 

vt 20.3694 0
vn 0.242975 0 0.970033
v 22.0108 0 -1.36112
vt 21.6819 0
v 22.0108 1.25 -1.36112
vt 21.6819 1.25
vt 20.3694 1.25
f 9/45/5 30/46/5 31/47/5 29/48/5 

v 22.0108 0 -8.79862
vt -22.0108 8.79862
vt -22.0108 1.36112
f 9/9/1 32/49/1 30/50/1

v 20.7376 0 -8.79862
vt -20.7376 8.79862
f 9/9/1 33/51/1 32/49/1

f 9/9/1 1/1/1 33/51/1

vt 8.79862 0
vn 1 0 -0
vt 10.9236 0
v 20.7376 1.25 -10.9236
vt 10.9236 1.25
v 20.7376 1.25 -8.79862
vt 8.79862 1.25
f 33/52/6 1/53/6 34/54/6 35/55/6 

vt -20.7376 0
vn 0 0 -1
vt -18.7376 0
v 18.7376 1.25 -10.9236
vt -18.7376 1.25
vt -20.7376 1.25
f 1/56/7 3/57/7 36/58/7 34/59/7 

vt 11.9236 0
v 18.7376 1.25 -11.9236
vt 11.9236 1.25
f 3/53/6 14/60/6 37/61/6 36/54/6 

vt 18.7376 0
v 19.4876 0 -11.9236
vt 19.4876 0
v 19.4876 1.25 -11.9236
vt 19.4876 1.25
vt 18.7376 1.25
f 14/62/3 38/63/3 39/64/3 37/65/3 

vt -19.4876 11.9236
f 14/14/1 17/17/1 38/66/1

vt 12.3611 0
v 19.4876 1.25 -12.3611
vt 12.3611 1.25
f 38/60/6 17/67/6 40/68/6 39/61/6 

vt -19.4876 0
vt -15.2376 0
vt -15.2376 1.25
vt -19.4876 1.25
f 17/69/7 20/70/7 22/71/7 40/72/7 

vt 15.2376 12.3611
vn 0 1 -0
vt 15.7376 10.5486
vt 19.4876 12.3611
f 22/73/8 23/74/8 40/75/8

vt 15.2376 10.5486
f 23/74/8 22/73/8 21/76/8

vt 18.7376 11.9236
f 40/75/8 23/74/8 37/77/8

vt 16.3001 10.2986
f 37/77/8 23/74/8 25/78/8

vt 15.7376 10.2986
f 25/78/8 23/74/8 24/79/8

vt 18.7376 10.9236
f 37/77/8 25/78/8 36/80/8

v 18.7618 1.25 -2.87148
vt 18.7618 2.87148
f 25/78/8 41/81/8 36/80/8

vt 18.8001 1.86112
f 25/78/8 27/82/8 41/81/8

vt 16.3001 1.86112
f 27/82/8 25/78/8 26/83/8

v 20.1961 1.25 -2.88492
vt 20.1961 2.88492
f 41/81/8 27/82/8 42/84/8

vt 18.8626 1.04222
f 42/84/8 27/82/8 28/85/8

vt 20.7376 1.04222
f 42/84/8 28/85/8 29/86/8

v 20.1961 1.25 -3.50992
vt 20.1961 3.50992
f 42/84/8 29/86/8 43/87/8

vt 20.7376 10.9236
f 34/88/8 43/87/8 29/86/8

v 19.9422 1.25 -4.44686
vt 19.9422 4.44686
f 34/88/8 44/89/8 43/87/8

v 19.4422 1.25 -4.44686
vt 19.4422 4.44686
f 34/88/8 45/90/8 44/89/8

v 18.7618 1.25 -3.50992
vt 18.7618 3.50992
f 34/88/8 46/91/8 45/90/8

f 36/80/8 46/91/8 34/88/8

f 46/91/8 36/80/8 41/81/8

vt 2.87148 0
vt 3.50992 0
vt 3.50992 1.25
vt 2.87148 1.25
f 12/92/6 2/93/6 46/94/6 41/95/6 

f 12/12/1 3/3/1 2/2/1

vt 18.7618 0
vt 20.1961 0
vt 20.1961 1.25
vt 18.7618 1.25
f 2/96/3 7/97/3 43/98/3 46/99/3 

v 19.4422 0 -3.88436
vt -19.4422 3.88436
f 2/2/1 47/100/1 7/7/1

f 47/100/1 2/2/1 4/4/1

vt 3.88436 0
vt 4.44686 0
vt 4.44686 1.25
v 19.4422 1.25 -3.88436
vt 3.88436 1.25
f 47/101/6 4/102/6 45/103/6 48/104/6 

vt 19.4422 0
vt 19.9422 0
vt 19.9422 1.25
vt 19.4422 1.25
f 4/105/3 5/106/3 44/107/3 45/108/3 

vt -4.44686 0
vt -3.88436 0
v 19.9422 1.25 -3.88436
vt -3.88436 1.25
vt -4.44686 1.25
f 5/109/2 6/110/2 49/111/2 44/112/2 

vt -19.9422 0
vt -19.4422 0
vt -19.4422 1.25
vt -19.9422 1.25
f 6/113/7 47/114/7 48/115/7 49/116/7 

f 7/7/1 47/100/1 6/6/1

vt 19.4422 3.88436
vt 19.9422 3.88436
f 48/117/8 43/87/8 49/118/8

f 43/87/8 48/117/8 46/91/8

f 45/90/8 46/91/8 48/117/8

f 49/118/8 43/87/8 44/89/8

vt -3.50992 0
vt -2.88492 0
vt -2.88492 1.25
vt -3.50992 1.25
f 7/119/2 8/120/2 42/121/2 43/122/2 

vt -20.2222 0
vn -0.00937478 0 -0.999956
vt -18.7879 0
vt -18.7879 1.25
vt -20.2222 1.25
f 8/123/9 12/124/9 41/125/9 42/126/9 

vt 20.7376 8.79862
f 34/88/8 29/86/8 35/127/8

vt 22.0108 1.36112
f 31/128/8 35/127/8 29/86/8

v 22.0108 1.25 -8.79862
vt 22.0108 8.79862
f 35/127/8 31/128/8 50/129/8

vt 1.36112 0
vt 1.36112 1.25
f 30/130/6 32/52/6 50/55/6 31/131/6 

vt -22.0108 0
vt -22.0108 1.25
f 32/132/7 33/56/7 35/59/7 50/133/7 

vt 19.4876 11.9236
f 40/75/8 37/77/8 39/134/8

