# Alias OBJ Model File
# Exported from SketchUp, (c) 2000-2012 Trimble Navigation Limited
# File units = inches

mtllib 98.790.mtl

g Mesh1 Model

usemtl FrontColor
v 82.9225 0 -90.3891
vt -82.9225 90.3891
vn 0 -1 -0
v 83.4225 0 158.923
vt -83.4225 -158.923
v 11.6725 0 158.923
vt -11.6725 -158.923
v 11.6725 0 136.798
vt -11.6725 -136.798
v -34.0775 0 136.798
vt 34.0775 -136.798
v -34.0775 0 98.9234
vt 34.0775 -98.9234
v -84.265 0 98.9234
vt 84.265 -98.9234
v -84.265 0 -122.327
vt 84.265 122.327
v -34.0775 0 -122.327
vt 34.0775 122.327
v -34.0775 0 -109.014
vt 34.0775 109.014
v -20.5775 0 -109.014
vt 20.5775 109.014
v -20.5775 0 -122.327
vt 20.5775 122.327
v 56.6725 0 -122.327
vt -56.6725 122.327
v 56.6725 0 -90.3891
vt -56.6725 90.3891
f 1/1/1 2/2/1 3/3/1 4/4/1 5/5/1 6/6/1 7/7/1 8/8/1 9/9/1 10/10/1 11/11/1 12/12/1 13/13/1 14/14/1 

vt -159.09 0
vn 0.999998 0 -0.00200551
vt 90.2226 0
v 82.9225 44.75 -90.3891
vt 90.2226 44.75
v 83.4225 44.75 158.923
vt -159.09 44.75
f 2/15/2 1/16/2 15/17/2 16/18/2 

vt -82.9225 0
vn 0 0 -1
vt -56.6725 0
v 56.6725 44.75 -90.3891
vt -56.6725 44.75
vt -82.9225 44.75
f 1/19/3 14/20/3 17/21/3 15/22/3 

vt 90.3891 0
vn 1 0 -0
vt 122.327 0
v 56.6725 44.75 -122.327
vt 122.327 44.75
vt 90.3891 44.75
f 14/23/4 13/24/4 18/25/4 17/26/4 

vt 20.5775 0
v -20.5775 44.75 -122.327
vt 20.5775 44.75
f 13/20/3 12/27/3 19/28/3 18/21/3 

vt -122.327 0
vn -1 0 -0
vt -109.014 0
v -20.5775 44.75 -109.014
vt -109.014 44.75
vt -122.327 44.75
f 12/29/5 11/30/5 20/31/5 19/32/5 

vt 34.0775 0
v -34.0775 44.75 -109.014
vt 34.0775 44.75
f 11/27/3 10/33/3 21/34/3 20/28/3 

vt 109.014 0
v -34.0775 44.75 -122.327
vt 109.014 44.75
f 10/35/4 9/24/4 22/25/4 21/36/4 

vt 84.265 0
v -84.265 44.75 -122.327
vt 84.265 44.75
f 9/33/3 8/37/3 23/38/3 22/34/3 

vt 98.9234 0
v -84.265 44.75 98.9234
vt 98.9234 44.75
f 8/29/5 7/39/5 24/40/5 23/32/5 

vt -84.265 0
vn 0 0 1
vt -34.0775 0
v -34.0775 44.75 98.9234
vt -34.0775 44.75
vt -84.265 44.75
f 7/41/6 6/42/6 25/43/6 24/44/6 

vt 136.798 0
v -34.0775 44.75 136.798
vt 136.798 44.75
f 6/39/5 5/45/5 26/46/5 25/40/5 

vt 11.6725 0
v 11.6725 44.75 136.798
vt 11.6725 44.75
f 5/42/6 4/47/6 27/48/6 26/43/6 

vt 158.923 0
v 11.6725 44.75 158.923
vt 158.923 44.75
f 4/45/5 3/49/5 28/50/5 27/46/5 

vt 83.4225 0
vt 83.4225 44.75
f 3/47/6 2/51/6 16/52/6 28/48/6 

vt 83.4225 -158.923
vn 0 1 -0
vt 82.9225 90.3891
vt 56.6725 90.3891
vt 56.6725 122.327
vt -20.5775 122.327
vt -20.5775 109.014
vt -34.0775 109.014
vt -34.0775 122.327
vt -84.265 122.327
vt -84.265 -98.9234
vt -34.0775 -98.9234
vt -34.0775 -136.798
vt 11.6725 -136.798
vt 11.6725 -158.923
f 16/53/7 15/54/7 17/55/7 18/56/7 19/57/7 20/58/7 21/59/7 22/60/7 23/61/7 24/62/7 25/63/7 26/64/7 27/65/7 28/66/7 

