# Alias OBJ Model File
# Exported from SketchUp, (c) 2000-2012 Trimble Navigation Limited
# File units = inches

mtllib 98.768.mtl

g Mesh1 Model

usemtl FrontColor
v 8.05878 3.55271e-15 -1.08947
vt -8.05878 1.08947
vn 0 -1 -0
v 12.3088 3.55271e-15 -1.08947
vt -12.3088 1.08947
v 12.3088 3.55271e-15 0.660527
vt -12.3088 -0.660527
v -8.69122 3.55271e-15 0.660527
vt 8.69122 -0.660527
v -8.69122 3.55271e-15 -0.651973
vt 8.69122 0.651973
v 8.05878 3.55271e-15 -0.651973
vt -8.05878 0.651973
f 1/1/1 2/2/1 3/3/1 4/4/1 5/5/1 6/6/1 

vt -12.3088 3.55271e-15
vn 0 0 -1
vt -8.05878 3.55271e-15
v 8.05878 2 -1.08947
vt -8.05878 2
v 12.3088 2 -1.08947
vt -12.3088 2
f 2/7/2 1/8/2 7/9/2 8/10/2 

vt -1.08947 3.55271e-15
vn -1 0 -0
vt -0.651973 3.55271e-15
v 8.05878 2 -0.651973
vt -0.651973 2
vt -1.08947 2
f 1/11/3 6/12/3 9/13/3 7/14/3 

vt 8.69122 3.55271e-15
v -8.69122 2 -0.651973
vt 8.69122 2
f 6/8/2 5/15/2 10/16/2 9/9/2 

vt 0.660527 3.55271e-15
v -8.69122 2 0.660527
vt 0.660527 2
f 5/12/3 4/17/3 11/18/3 10/13/3 

vt -8.69122 3.55271e-15
vn 0 0 1
vt 12.3088 3.55271e-15
v 12.3088 2 0.660527
vt 12.3088 2
vt -8.69122 2
f 4/19/4 3/20/4 12/21/4 11/22/4 

vt -0.660527 3.55271e-15
vn 1 0 -0
vt 1.08947 3.55271e-15
vt 1.08947 2
vt -0.660527 2
f 3/23/5 2/24/5 8/25/5 12/26/5 

vt 12.3088 1.08947
vn 0 1 -0
vt 8.05878 1.08947
vt 8.05878 0.651973
vt -8.69122 0.651973
vt -8.69122 -0.660527
vt 12.3088 -0.660527
f 8/27/6 7/28/6 9/29/6 10/30/6 11/31/6 12/32/6 

