# Alias OBJ Model File
# Exported from SketchUp, (c) 2000-2012 Trimble Navigation Limited
# File units = millimeters

mtllib 00.035A.mtl

g Mesh1 Model

usemtl FrontColor
v -179.862 -3.60956e-13 101.803
vt 7.08116 -4.00797
vn 0 -1 -0
v -179.921 -3.60956e-13 18.7305
vt 7.08349 -0.737422
v -165.52 -3.60956e-13 7.55436
vt 6.51652 -0.297416
v -151.648 -3.60956e-13 -4.2722
vt 5.97039 0.168197
v -138.335 -3.60956e-13 -16.7242
vt 5.44624 0.658432
v -125.608 -3.60956e-13 -29.7752
vt 4.94519 1.17225
v -113.495 -3.60956e-13 -43.3976
vt 4.4683 1.70857
v -102.021 -3.60956e-13 -57.5627
vt 4.01658 2.26625
v -91.2109 -3.60956e-13 -72.2404
vt 3.59098 2.84411
v -81.0871 -3.60956e-13 -87.3997
vt 3.1924 3.44093
v -71.6711 -3.60956e-13 -103.009
vt 2.8217 4.05545
v -62.9828 -3.60956e-13 -119.034
vt 2.47964 4.68637
v -55.0407 -3.60956e-13 -135.442
vt 2.16696 5.33235
v -47.8615 -3.60956e-13 -152.197
vt 1.88431 5.99203
v 101.138 -3.60956e-13 -152.197
vt -3.98183 5.99203
v 101.138 -3.60956e-13 101.803
vt -3.98183 -4.00797
f 1/1/1 2/2/1 3/3/1 4/4/1 5/5/1 6/6/1 7/7/1 8/8/1 9/9/1 10/10/1 11/11/1 12/12/1 13/13/1 14/14/1 15/15/1 16/16/1 

vt 0.732373 -1.42109e-14
vn -1 0 0.000712685
vt 4.00293 -1.42109e-14
v -179.862 144 101.803
vt 4.00293 5.66929
v -179.921 144 18.7305
vt 0.732373 5.66929
f 2/17/2 1/18/2 17/19/2 18/20/2 

vt -7.08116 -1.42109e-14
vn 0 0 1
vt 3.98183 -1.42109e-14
v 101.138 144 101.803
vt 3.98183 5.66929
vt -7.08116 5.66929
f 1/21/3 16/22/3 19/23/3 17/24/3 

vt -4.00797 -1.42109e-14
vn 1 0 -0
vt 5.99203 -1.42109e-14
v 101.138 144 -152.197
vt 5.99203 5.66929
vt -4.00797 5.66929
f 16/25/4 15/26/4 20/27/4 19/28/4 

vt -3.98183 -1.42109e-14
vn 0 0 -1
vt 1.88431 -1.42109e-14
v -47.8615 144 -152.197
vt 1.88431 5.66929
vt -3.98183 5.66929
f 15/29/5 14/30/5 21/31/5 20/32/5 

vt -4.76565 -1.42109e-14
vn -0.919182 0 -0.393834
vt -4.04798 -1.42109e-14
vn -0.909881 0 -0.41487
v -55.0407 144 -135.442
vt -4.04798 5.66929
vt -4.76565 5.66929
f 14/33/6 13/34/7 22/35/7 21/36/6 

vt -3.85553 -1.42109e-14
vt -3.13785 -1.42109e-14
vn -0.88984 0 -0.456273
v -62.9828 144 -119.034
vt -3.13785 5.66929
vt -3.85553 5.66929
f 13/37/7 12/38/8 23/39/8 22/40/7 

vt -2.938 -1.42109e-14
vt -2.22032 -1.42109e-14
vn -0.867917 0 -0.49671
v -71.6711 144 -103.009
vt -2.22032 5.66929
vt -2.938 5.66929
f 12/41/8 11/42/9 24/43/9 23/44/8 

vt -2.01502 -1.42109e-14
vt -1.29734 -1.42109e-14
vn -0.844157 0 -0.536096
v -81.0871 144 -87.3997
vt -1.29734 5.66929
vt -2.01502 5.66929
f 11/45/9 10/46/10 25/47/10 24/48/9 

vt -1.08853 -1.42109e-14
vt -0.370853 -1.42109e-14
vn -0.818611 0 -0.574348
v -91.2109 144 -72.2404
vt -0.370853 5.66929
vt -1.08853 5.66929
f 10/49/10 9/50/11 26/51/11 25/52/10 

vt -0.160499 -1.42109e-14
vt 0.557178 -1.42109e-14
vn -0.791333 0 -0.611385
v -102.021 144 -57.5627
vt 0.557178 5.66929
vt -0.160499 5.66929
f 9/53/11 8/54/12 27/55/12 26/56/11 

vt 0.767112 -1.42109e-14
vt 1.48479 -1.42109e-14
vn -0.762381 0 -0.647128
v -113.495 144 -43.3976
vt 1.48479 5.66929
vt 0.767112 5.66929
f 8/57/12 7/58/13 28/59/13 27/60/12 

vt 1.69234 -1.42109e-14
vt 2.41002 -1.42109e-14
vn -0.731816 0 -0.681503
v -125.608 144 -29.7752
vt 2.41002 5.66929
vt 1.69234 5.66929
f 7/61/13 6/62/14 29/63/14 28/64/13 

vt 2.61323 -1.42109e-14
vt 3.33091 -1.42109e-14
vn -0.699702 0 -0.714435
v -138.335 144 -16.7242
vt 3.33091 5.66929
vt 2.61323 5.66929
f 6/65/14 5/66/15 30/67/15 29/68/14 

vt 3.52783 -1.42109e-14
vt 4.24551 -1.42109e-14
vn -0.666108 0 -0.745855
v -151.648 144 -4.2722
vt 4.24551 5.66929
vt 3.52783 5.66929
f 5/69/15 4/70/16 31/71/16 30/72/15 

vt 4.43421 -1.42109e-14
vt 5.15189 -1.42109e-14
vn -0.631105 0 -0.775698
v -165.52 144 7.55436
vt 5.15189 5.66929
vt 4.43421 5.66929
f 4/73/16 3/74/17 32/75/17 31/76/16 

vt 5.33045 -1.42109e-14
vt 6.04812 -1.42109e-14
vn -0.613097 0 -0.790007
vt 6.04812 5.66929
vt 5.33045 5.66929
f 3/77/17 2/78/18 18/79/18 32/80/17 

vt -7.08349 -0.737422
vn 0 1 -0
vt -7.08116 -4.00797
vt 3.98183 -4.00797
vt 3.98183 5.99203
vt -1.88431 5.99203
vt -2.16696 5.33235
vt -2.47964 4.68637
vt -2.8217 4.05545
vt -3.1924 3.44093
vt -3.59098 2.84411
vt -4.01658 2.26625
vt -4.4683 1.70857
vt -4.94519 1.17225
vt -5.44624 0.658432
vt -5.97039 0.168197
vt -6.51652 -0.297416
f 18/81/19 17/82/19 19/83/19 20/84/19 21/85/19 22/86/19 23/87/19 24/88/19 25/89/19 26/90/19 27/91/19 28/92/19 29/93/19 30/94/19 31/95/19 32/96/19 

