# Alias OBJ Model File
# Exported from SketchUp, (c) 2000-2012 Trimble Navigation Limited
# File units = millimeters

mtllib 00.259.mtl

g Mesh1 Model

usemtl FrontColor
v 788.681 0 654.836
vt -31.0504 -25.7809
vn 0 -1 -0
v -472.319 0 180.836
vt 18.5952 -7.11953
v -472.319 0 -362.164
vt 18.5952 14.2584
v 615.681 0 -362.164
vt -24.2394 14.2584
v 615.681 0 69.8361
vt -24.2394 -2.74945
v 788.681 0 69.8361
vt -31.0504 -2.74945
f 1/1/1 2/2/1 3/3/1 4/4/1 5/5/1 6/6/1 

vt -14.9011 0
vn -0.351855 0 0.936054
vt 38.1361 0
v 788.681 320 654.836
vt 38.1361 12.5984
v -472.319 320 180.836
vt -14.9011 12.5984
f 2/7/2 1/8/2 7/9/2 8/10/2 

vt -25.7809 0
vn 1 0 -0
vt -2.74945 0
v 788.681 320 69.8361
vt -2.74945 12.5984
vt -25.7809 12.5984
f 1/11/3 6/12/3 9/13/3 7/14/3 

vt -31.0504 0
vn 0 0 -1
vt -24.2394 0
v 615.681 320 69.8361
vt -24.2394 12.5984
vt -31.0504 12.5984
f 6/15/4 5/16/4 10/17/4 9/18/4 

vt 14.2584 0
v 615.681 320 -362.164
vt 14.2584 12.5984
f 5/12/3 4/19/3 11/20/3 10/13/3 

vt 18.5952 0
v -472.319 320 -362.164
vt 18.5952 12.5984
f 4/16/4 3/21/4 12/22/4 11/17/4 

vt -14.2584 0
vn -1 0 -0
vt 7.11953 0
vt 7.11953 12.5984
vt -14.2584 12.5984
f 3/23/5 2/24/5 8/25/5 12/26/5 

vt -18.5952 -7.11953
vn 0 1 -0
vt 31.0504 -25.7809
vt 31.0504 -2.74945
vt 24.2394 -2.74945
vt 24.2394 14.2584
vt -18.5952 14.2584
f 8/27/6 7/28/6 9/29/6 10/30/6 11/31/6 12/32/6 

