# Alias OBJ Model File
# Exported from SketchUp, (c) 2000-2012 Trimble Navigation Limited
# File units = millimeters

mtllib 00.246.mtl

g Mesh1 Model

usemtl FrontColor
v -187.665 -3.60956e-13 -165.301
vt 7.38837 6.50791
vn 0 -1 -0
v 86.3353 -3.60956e-13 -160.301
vt -3.39903 6.31106
v 86.3353 -3.60956e-13 -38.3009
vt -3.39903 1.50791
v 139.335 -3.60956e-13 -38.3009
vt -5.48564 1.50791
v 139.335 -3.60956e-13 177.699
vt -5.48564 -6.99603
v -65.6647 -3.60956e-13 177.699
vt 2.58523 -6.99603
v -65.6647 -3.60956e-13 56.6991
vt 2.58523 -2.23225
v -187.665 -3.60956e-13 56.6991
vt 7.38837 -2.23225
f 1/1/1 2/2/1 3/3/1 4/4/1 5/5/1 6/6/1 7/7/1 8/8/1 

vt -3.28331 -1.42109e-14
vn 0.0182451 0 -0.999834
vt 7.50588 -1.42109e-14
v -187.665 89 -165.301
vt 7.50588 3.50394
v 86.3353 89 -160.301
vt -3.28331 3.50394
f 2/9/2 1/10/2 9/11/2 10/12/2 

vt -6.50791 -1.42109e-14
vn -1 0 -0
vt 2.23225 -1.42109e-14
v -187.665 89 56.6991
vt 2.23225 3.50394
vt -6.50791 3.50394
f 1/13/3 8/14/3 11/15/3 9/16/3 

vt -7.38837 -1.42109e-14
vn 0 0 1
vt -2.58523 -1.42109e-14
v -65.6647 89 56.6991
vt -2.58523 3.50394
vt -7.38837 3.50394
f 8/17/4 7/18/4 12/19/4 11/20/4 

vt 6.99603 -1.42109e-14
v -65.6647 89 177.699
vt 6.99603 3.50394
f 7/14/3 6/21/3 13/22/3 12/15/3 

vt 5.48564 -1.42109e-14
v 139.335 89 177.699
vt 5.48564 3.50394
f 6/18/4 5/23/4 14/24/4 13/19/4 

vt -6.99603 -1.42109e-14
vn 1 0 -0
vt 1.50791 -1.42109e-14
v 139.335 89 -38.3009
vt 1.50791 3.50394
vt -6.99603 3.50394
f 5/25/5 4/26/5 15/27/5 14/28/5 

vt -5.48564 -1.42109e-14
vn 0 0 -1
vt -3.39903 -1.42109e-14
v 86.3353 89 -38.3009
vt -3.39903 3.50394
vt -5.48564 3.50394
f 4/29/6 3/30/6 16/31/6 15/32/6 

vt 6.31106 -1.42109e-14
vt 6.31106 3.50394
f 3/26/5 2/33/5 10/34/5 16/27/5 

vt 3.39903 6.31106
vn 0 1 -0
vt -7.38837 6.50791
vt -7.38837 -2.23225
vt -2.58523 -2.23225
vt -2.58523 -6.99603
vt 5.48564 -6.99603
vt 5.48564 1.50791
vt 3.39903 1.50791
f 10/35/7 9/36/7 11/37/7 12/38/7 13/39/7 14/40/7 15/41/7 16/42/7 

