# Alias OBJ Model File
# Exported from SketchUp, (c) 2000-2012 Trimble Navigation Limited
# File units = millimeters

mtllib 00.241.mtl

g Mesh1 Model

usemtl FrontColor
v 7.15772 0 13.9731
vt -0.2818 -0.550123
vn 0 -1 -0
v -11.8423 0 7.97311
vt 0.466232 -0.313902
v -11.8423 0 -6.02689
vt 0.466232 0.237279
v 7.15772 0 -6.02689
vt -0.2818 0.237279
f 1/1/1 2/2/1 3/3/1 4/4/1 

vt -0.350065 0
vn -0.301131 0 0.953583
vt 0.434379 0
v 7.15772 11 13.9731
vt 0.434379 0.433071
v -11.8423 11 7.97311
vt -0.350065 0.433071
f 2/5/2 1/6/2 5/7/2 6/8/2 

vt -0.550123 0
vn 1 0 -0
vt 0.237279 0
v 7.15772 11 -6.02689
vt 0.237279 0.433071
vt -0.550123 0.433071
f 1/9/3 4/10/3 7/11/3 5/12/3 

vt -0.2818 0
vn 0 0 -1
vt 0.466232 0
v -11.8423 11 -6.02689
vt 0.466232 0.433071
vt -0.2818 0.433071
f 4/13/4 3/14/4 8/15/4 7/16/4 

vt -0.237279 0
vn -1 0 -0
vt 0.313902 0
vt 0.313902 0.433071
vt -0.237279 0.433071
f 3/17/5 2/18/5 6/19/5 8/20/5 

vt -0.466232 -0.313902
vn 0 1 -0
vt 0.2818 -0.550123
vt 0.2818 0.237279
vt -0.466232 0.237279
f 6/21/6 5/22/6 7/23/6 8/24/6 

