# Alias OBJ Model File
# Exported from SketchUp, (c) 2000-2012 Trimble Navigation Limited
# File units = millimeters

mtllib 00.506.mtl

g Mesh1 Model

usemtl FrontColor
v 340.333 0 149.286
vt -13.3989 -5.87741
vn 0 -1 -0
v -872.667 0 149.286
vt 34.357 -5.87741
v -872.667 0 -110.714
vt 34.357 4.35881
v -536.667 0 -110.714
vt 21.1286 4.35881
v -536.667 0 -354.714
vt 21.1286 13.9651
v -242.667 0 -354.714
vt 9.55381 13.9651
v -242.667 0 -243.714
vt 9.55381 9.59503
v 340.333 0 -243.714
vt -13.3989 9.59503
f 1/1/1 2/2/1 3/3/1 4/4/1 5/5/1 6/6/1 7/7/1 8/8/1 

vt -34.357 0
vn 0 0 1
vt 13.3989 0
v 340.333 208 149.286
vt 13.3989 8.18898
v -872.667 208 149.286
vt -34.357 8.18898
f 2/9/2 1/10/2 9/11/2 10/12/2 

vt -5.87741 0
vn 1 0 -0
vt 9.59503 0
v 340.333 208 -243.714
vt 9.59503 8.18898
vt -5.87741 8.18898
f 1/13/3 8/14/3 11/15/3 9/16/3 

vt -13.3989 0
vn 0 0 -1
vt 9.55381 0
v -242.667 208 -243.714
vt 9.55381 8.18898
vt -13.3989 8.18898
f 8/17/4 7/18/4 12/19/4 11/20/4 

vt 13.9651 0
v -242.667 208 -354.714
vt 13.9651 8.18898
f 7/14/3 6/21/3 13/22/3 12/15/3 

vt 21.1286 0
v -536.667 208 -354.714
vt 21.1286 8.18898
f 6/18/4 5/23/4 14/24/4 13/19/4 

vt -13.9651 0
vn -1 0 -0
vt -4.35881 0
v -536.667 208 -110.714
vt -4.35881 8.18898
vt -13.9651 8.18898
f 5/25/5 4/26/5 15/27/5 14/28/5 

vt 34.357 0
v -872.667 208 -110.714
vt 34.357 8.18898
f 4/23/4 3/29/4 16/30/4 15/24/4 

vt 5.87741 0
vt 5.87741 8.18898
f 3/26/5 2/31/5 10/32/5 16/27/5 

vt -34.357 -5.87741
vn 0 1 -0
vt 13.3989 -5.87741
vt 13.3989 9.59503
vt -9.55381 9.59503
vt -9.55381 13.9651
vt -21.1286 13.9651
vt -21.1286 4.35881
vt -34.357 4.35881
f 10/33/6 9/34/6 11/35/6 12/36/6 13/37/6 14/38/6 15/39/6 16/40/6 

