# Alias OBJ Model File
# Exported from SketchUp, (c) 2000-2012 Trimble Navigation Limited
# File units = millimeters

mtllib 00.507.mtl

g Mesh1 Model

usemtl FrontColor
v -265.772 -3.60956e-13 -76.8536
vt 10.4635 3.02573
vn 0 -1 -0
v 133.228 -3.60956e-13 -72.8536
vt -5.24519 2.86825
v 133.228 -3.60956e-13 51.1464
vt -5.24519 -2.01364
v -47.7722 -3.60956e-13 51.1464
vt 1.8808 -2.01364
v -47.7722 -3.60956e-13 9.14643
vt 1.8808 -0.360096
v -168.772 -3.60956e-13 9.14643
vt 6.64458 -0.360096
v -168.772 -3.60956e-13 93.1464
vt 6.64458 -3.66718
v -265.772 -3.60956e-13 93.1464
vt 10.4635 -3.66718
f 1/1/1 2/2/1 3/3/1 4/4/1 5/5/1 6/6/1 7/7/1 8/8/1 

vt -5.21617 -1.42109e-14
vn 0.0100246 0 -0.99995
vt 10.4933 -1.42109e-14
v -265.772 72 -76.8536
vt 10.4933 2.83465
v 133.228 72 -72.8536
vt -5.21617 2.83465
f 2/9/2 1/10/2 9/11/2 10/12/2 

vt -3.02573 -1.42109e-14
vn -1 0 -0
vt 3.66718 -1.42109e-14
v -265.772 72 93.1464
vt 3.66718 2.83465
vt -3.02573 2.83465
f 1/13/3 8/14/3 11/15/3 9/16/3 

vt -10.4635 -1.42109e-14
vn 0 0 1
vt -6.64458 -1.42109e-14
v -168.772 72 93.1464
vt -6.64458 2.83465
vt -10.4635 2.83465
f 8/17/4 7/18/4 12/19/4 11/20/4 

vt -3.66718 -1.42109e-14
vn 1 0 -0
vt -0.360096 -1.42109e-14
v -168.772 72 9.14643
vt -0.360096 2.83465
vt -3.66718 2.83465
f 7/21/5 6/22/5 13/23/5 12/24/5 

vt -1.8808 -1.42109e-14
v -47.7722 72 9.14643
vt -1.8808 2.83465
f 6/18/4 5/25/4 14/26/4 13/19/4 

vt 0.360096 -1.42109e-14
vt 2.01364 -1.42109e-14
v -47.7722 72 51.1464
vt 2.01364 2.83465
vt 0.360096 2.83465
f 5/27/3 4/28/3 15/29/3 14/30/3 

vt 5.24519 -1.42109e-14
v 133.228 72 51.1464
vt 5.24519 2.83465
f 4/25/4 3/31/4 16/32/4 15/26/4 

vt -2.01364 -1.42109e-14
vt 2.86825 -1.42109e-14
vt 2.86825 2.83465
vt -2.01364 2.83465
f 3/33/5 2/34/5 10/35/5 16/36/5 

vt 5.24519 2.86825
vn 0 1 -0
vt -10.4635 3.02573
vt -10.4635 -3.66718
vt -6.64458 -3.66718
vt -6.64458 -0.360096
vt -1.8808 -0.360096
vt -1.8808 -2.01364
vt 5.24519 -2.01364
f 10/37/6 9/38/6 11/39/6 12/40/6 13/41/6 14/42/6 15/43/6 16/44/6 

