# Alias OBJ Model File
# Exported from SketchUp, (c) 2000-2012 Trimble Navigation Limited
# File units = millimeters

mtllib 00.845.mtl

g Mesh1 Model

usemtl FrontColor
v -11.7971 0 12.8726
vt 0.464454 -0.506796
vn 0 -1 -0
v -11.7971 0 -10.1274
vt 0.464454 0.398716
v 10.2029 0 -10.1274
vt -0.401688 0.398716
v 10.2029 0 -5.12738
vt -0.401688 0.201865
v 21.2029 0 -5.12738
vt -0.834759 0.201865
v 21.2029 0 4.87262
vt -0.834759 -0.191835
v 4.20287 0 4.87262
vt -0.165467 -0.191835
v 4.20287 0 12.8726
vt -0.165467 -0.506796
f 1/1/1 2/2/1 3/3/1 4/4/1 5/5/1 6/6/1 7/7/1 8/8/1 

vt -0.398716 0
vn -1 0 1.22607e-16
vt 0.506796 0
v -11.7971 7 12.8726
vt 0.506796 0.275591
v -11.7971 7 -10.1274
vt -0.398716 0.275591
f 2/9/2 1/10/2 9/11/2 10/12/2 

vt -0.464454 0
vn 0 0 1
vt 0.165467 0
v 4.20287 7 12.8726
vt 0.165467 0.275591
vt -0.464454 0.275591
f 1/13/3 8/14/3 11/15/3 9/16/3 

vt -0.506796 0
vn 1 0 -0
vt -0.191835 0
v 4.20287 7 4.87262
vt -0.191835 0.275591
vt -0.506796 0.275591
f 8/17/4 7/18/4 12/19/4 11/20/4 

vt 0.834759 0
v 21.2029 7 4.87262
vt 0.834759 0.275591
f 7/14/3 6/21/3 13/22/3 12/15/3 

vt 0.201865 0
v 21.2029 7 -5.12738
vt 0.201865 0.275591
f 6/18/4 5/23/4 14/24/4 13/19/4 

vt -0.834759 0
vn 0 0 -1
vt -0.401688 0
v 10.2029 7 -5.12738
vt -0.401688 0.275591
vt -0.834759 0.275591
f 5/25/5 4/26/5 15/27/5 14/28/5 

vt 0.398716 0
v 10.2029 7 -10.1274
vt 0.398716 0.275591
f 4/23/4 3/29/4 16/30/4 15/24/4 

vt 0.464454 0
vt 0.464454 0.275591
f 3/26/5 2/31/5 10/32/5 16/27/5 

vt -0.464454 0.398716
vn 0 1 -0
vt -0.464454 -0.506796
vt 0.165467 -0.506796
vt 0.165467 -0.191835
vt 0.834759 -0.191835
vt 0.834759 0.201865
vt 0.401688 0.201865
vt 0.401688 0.398716
f 10/33/6 9/34/6 11/35/6 12/36/6 13/37/6 14/38/6 15/39/6 16/40/6 

